<?xml version="1.0"?>
<svg xmlns="http://www.w3.org/2000/svg" viewBox="0 0 24 24">
    <path fill="#403D58" d="M21.92,8.953C21.684,7.949,20.026,6.895,19,7c0.079-0.375-1.606-1.66-1.933-1.86C15.32,4.073,13.146,3.021,11,3 C6.75,2.959,4.892,6.171,4,7.037C3.458,7.563,2.628,8.335,2,9c0.625,0,1.542,0,2,0c-0.532,0.893-2.203,2.854-2,5 c0.854-1.146,1.437-1.375,2.142-1.689C2.842,16.206,4.625,20,7,21c-0.281-1.25-0.313-3.375,0-4c1.203,2.035,3.854,3.479,5,4 c0-2.125-0.22-4.761,1-7c0.79-1.451,2.406-3,4-3c1.359,0,2.141,0,4,0c0.219,0.297,0.5,0.5,1,1c0-0.718,0.065-1.362,0.047-2 C22.037,9.653,22.003,9.307,21.92,8.953z M14.624,8.102C13.771,8.102,13.156,7.562,13,7c-0.215-0.239-0.833-0.663-1-1 c0.428,0.407,3.625,1,4,1C16,7.533,15.781,8.102,14.624,8.102z"/>
</svg>
